<svg width="30" height="26" viewBox="0 0 30 26" fill="none" xmlns="http://www.w3.org/2000/svg">
<path d="M11.8509 25.5237C12.1686 25.8414 12.5838 25.9998 12.9998 25.9998C13.4158 25.9998 13.831 25.8414 14.1487 25.5237C14.7832 24.8891 14.7832 23.8605 14.1487 23.2259L5.54755 14.6248H27.6248C28.5218 14.6248 29.2498 13.8968 29.2498 12.9998C29.2498 12.1028 28.5218 11.3748 27.6248 11.3748H5.54755L14.1487 2.77367C14.7832 2.13911 14.7832 1.11048 14.1487 0.475922C13.5141 -0.158641 12.4855 -0.158641 11.8509 0.475922L0.475922 11.8509C-0.158641 12.4855 -0.158641 13.5141 0.475922 14.1487L11.8509 25.5237Z" fill="#242424"/>
</svg>
