<svg width="26" height="33" viewBox="0 0 26 33" fill="none" xmlns="http://www.w3.org/2000/svg">
<path opacity="0.6" d="M13 0C11.5227 0 9.45455 0.258679 8.27273 0.776036V2.10638H3.54545V6.17133H22.4545V2.10638H17.7273V0.776036C16.5455 0.258679 14.4773 0 13 0ZM9.45455 2.99328C10.1045 2.99328 10.6364 3.52246 10.6364 4.17581C10.6364 4.8262 10.1045 5.35834 9.45455 5.35834C8.80455 5.35834 8.27273 4.8262 8.27273 4.17581C8.27273 3.52246 8.80455 2.99328 9.45455 2.99328ZM16.5455 2.99328C17.1955 2.99328 17.7273 3.52246 17.7273 4.17581C17.7273 4.8262 17.1955 5.35834 16.5455 5.35834C15.8955 5.35834 15.3636 4.8262 15.3636 4.17581C15.3636 3.52246 15.8955 2.99328 16.5455 2.99328ZM2.36364 7.50168V8.83203H1.18182V10.1624H24.8182V8.83203H23.6364V7.50168H2.36364ZM0 11.3449V12.6753H26V11.3449H0ZM1.18182 14.0056V19.327H9.50625C10.1045 15.4838 15.8955 15.4838 16.4937 19.327H24.8182V14.0056H1.18182ZM1.18182 20.6573V22.8746H8.27273V24.2049H1.18182V33H9.45455V20.6573H1.18182ZM16.5455 20.6573V33H24.8182V24.2049H17.7273V22.8746H24.8182V20.6573H16.5455Z" fill="#1E1E1E"/>
</svg>
