<svg width="29" height="33" viewBox="0 0 29 33" fill="none" xmlns="http://www.w3.org/2000/svg">
<path opacity="0.6" d="M27.1453 7.32915L12.6042 12.0842C12.4335 12.1949 12.2376 12.2598 12.035 12.2728L7.04007 13.9032H27.8141C28.1286 13.9032 28.4303 14.029 28.6527 14.2528C28.8751 14.4766 29 14.7802 29 15.0968V27.0323C29 28.615 28.3753 30.1329 27.2633 31.2521C26.1514 32.3713 24.6432 33 23.0707 33H6.46848C4.89592 33 3.38777 32.3713 2.2758 31.2521C1.16383 30.1329 0.539136 28.615 0.539136 27.0323V15.0968C0.539136 14.8437 0.617403 14.6074 0.752592 14.4117L0.290103 12.9746C-0.195721 11.4694 -0.0676075 9.83166 0.646263 8.42153C1.36013 7.01141 2.60129 5.94442 4.09674 5.45528L19.8854 0.291982C21.3809 -0.196988 23.0082 -0.0680456 24.4092 0.650448C25.8103 1.36894 26.8704 2.61814 27.3564 4.12327L27.9066 5.82528C28.0038 6.12631 27.9782 6.45387 27.8354 6.7359C27.6926 7.01792 27.4444 7.23132 27.1453 7.32915ZM18.2655 7.72302L21.3132 2.40934C21.0771 2.4369 20.8443 2.48807 20.6183 2.56211L17.6655 3.5265L14.5632 8.93328L18.2631 7.72302H18.2655ZM23.7087 2.99895C23.694 3.02903 23.6782 3.0585 23.6612 3.08727L21.6358 6.62018L25.2835 5.42663L25.1009 4.86089C24.857 4.10085 24.3668 3.44519 23.7087 2.99895ZM14.2928 4.62934L10.5929 5.8396L7.48833 11.2464L11.1882 10.0361L14.2952 4.62934H14.2928ZM2.72825 12.8052L4.12046 12.3516L7.22032 6.94244L4.82961 7.72541C3.93234 8.0189 3.18765 8.65908 2.75932 9.50516C2.331 10.3512 2.25413 11.3339 2.54563 12.237L2.72825 12.8052ZM2.91087 16.2903V27.0323C2.91087 27.9819 3.28569 28.8927 3.95287 29.5642C4.62005 30.2357 5.52495 30.6129 6.46848 30.6129H23.0707C24.0142 30.6129 24.9191 30.2357 25.5863 29.5642C26.2534 28.8927 26.6283 27.9819 26.6283 27.0323V16.2903H2.91087Z" fill="#1E1E1E"/>
</svg>
