<svg width="33" height="33" viewBox="0 0 33 33" fill="none" xmlns="http://www.w3.org/2000/svg">
<g opacity="0.6" clip-path="url(#clip0_96_24622)">
<path d="M7.99217 14.228C8.13182 14.228 8.28758 14.2495 8.45946 14.2925C8.63133 14.3354 8.80321 14.3945 8.97508 14.4697C9.14696 14.5449 9.31883 14.6147 9.49071 14.6792C9.66258 14.7436 9.81835 14.8081 9.95799 14.8725L9.70018 14.9048C9.61424 14.9155 9.52293 14.9209 9.42626 14.9209C9.24364 14.9209 9.07713 14.894 8.92674 14.8403C8.77635 14.7866 8.6367 14.7168 8.5078 14.6308C8.37889 14.5449 8.24999 14.4805 8.12108 14.4375C7.99217 14.3945 7.87401 14.3623 7.76659 14.3408C7.65917 14.3408 7.56249 14.3623 7.47655 14.4053C7.39061 14.4482 7.30467 14.4966 7.21874 14.5503C7.21874 14.5073 7.18114 14.4858 7.10594 14.4858C7.18114 14.4106 7.32079 14.3515 7.52489 14.3086C7.72899 14.2656 7.88475 14.2388 7.99217 14.228ZM10.1675 14.9531C10.6079 14.9531 11.0107 15.0283 11.376 15.1787C11.2256 15.2324 11.0752 15.2754 10.9248 15.3076C10.7744 15.3398 10.6186 15.3613 10.4575 15.3721C10.2427 15.3721 10.0493 15.3506 9.87743 15.3076C9.93114 15.2217 9.98485 15.168 10.0386 15.1465C10.0923 15.125 10.1352 15.0605 10.1675 14.9531ZM16.5 -1.4085e-05C18.0146 -1.4085e-05 19.4702 0.198716 20.8667 0.596177C22.2632 0.993638 23.5737 1.54686 24.7983 2.25585C26.0229 2.96483 27.1401 3.82958 28.1499 4.85008C29.1597 5.87059 30.019 6.98241 30.728 8.18553C31.437 9.38866 31.9956 10.6992 32.4038 12.1172C32.812 13.5351 33.0107 14.9961 33 16.5C33 18.0146 32.8013 19.4702 32.4038 20.8667C32.0063 22.2632 31.4531 23.5737 30.7441 24.7983C30.0351 26.0229 29.1704 27.1401 28.1499 28.1499C27.1294 29.1597 26.0176 30.019 24.8144 30.728C23.6113 31.437 22.3008 31.9956 20.8828 32.4038C19.4648 32.812 18.0039 33.0107 16.5 33C14.9853 33 13.5298 32.8013 12.1333 32.4038C10.7368 32.0063 9.42626 31.4531 8.20165 30.7441C6.97704 30.0351 5.85985 29.1704 4.85008 28.1499C3.84032 27.1294 2.98094 26.0176 2.27196 24.8144C1.56297 23.6113 1.00438 22.3008 0.596177 20.8828C0.187974 19.4648 -0.0107563 18.0039 -1.4085e-05 16.5C-1.4085e-05 14.9853 0.198716 13.5298 0.596177 12.1333C0.993638 10.7368 1.54686 9.42626 2.25585 8.20165C2.96483 6.97704 3.82958 5.85985 4.85008 4.85008C5.87059 3.84032 6.98241 2.98094 8.18553 2.27196C9.38866 1.56297 10.6992 1.00438 12.1172 0.596177C13.5351 0.187974 14.9961 -0.0107563 16.5 -1.4085e-05ZM28.7783 8.94286C28.6279 8.70653 28.4775 8.48094 28.3271 8.2661C28.1767 8.05126 28.021 7.83104 27.8598 7.60545C27.8384 7.70213 27.8115 7.77196 27.7793 7.81493C27.7471 7.8579 27.7256 7.95458 27.7148 8.10497C27.7148 8.20165 27.7524 8.29295 27.8276 8.37889C27.9028 8.46483 27.9995 8.55077 28.1177 8.6367C28.2358 8.72264 28.354 8.7871 28.4722 8.83006C28.5903 8.87303 28.6924 8.91063 28.7783 8.94286ZM27.6665 7.36376C27.6665 7.44969 27.6504 7.50877 27.6182 7.541H27.7148C27.7578 7.541 27.79 7.54637 27.8115 7.55711L27.6665 7.36376ZM16.5 30.9375C17.7246 30.9375 18.9223 30.7817 20.0932 30.4702C21.2641 30.1587 22.3706 29.7182 23.4126 29.1489C24.4546 28.5796 25.4214 27.8813 26.313 27.0542C27.2046 26.227 27.9834 25.3032 28.6494 24.2827C28.5098 23.9604 28.3755 23.6328 28.2466 23.2998C28.1177 22.9668 28.0532 22.623 28.0532 22.2685C28.0532 21.8818 28.0693 21.5703 28.1015 21.334C28.1338 21.0976 28.1714 20.8882 28.2143 20.7056C28.2573 20.5229 28.2788 20.3672 28.2788 20.2383C28.2788 20.1094 28.2627 19.9429 28.2305 19.7388C28.1982 19.5347 28.1069 19.3144 27.9565 19.0781C27.8061 18.8418 27.6074 18.5088 27.3603 18.0791C27.3711 18.0039 27.3872 17.9018 27.4087 17.7729C27.4302 17.644 27.4516 17.5098 27.4731 17.3701C27.4946 17.2305 27.5 17.1015 27.4892 16.9834C27.4785 16.8652 27.4516 16.7632 27.4087 16.6772C27.1294 16.645 26.8393 16.5859 26.5386 16.5C26.2378 16.414 25.9692 16.2851 25.7329 16.1133L25.8296 16.0327C25.6899 16.0649 25.5503 16.1079 25.4106 16.1616C25.271 16.2153 25.1367 16.2744 25.0078 16.3389C24.8789 16.4033 24.7392 16.4463 24.5889 16.4678C24.4385 16.4892 24.2934 16.5107 24.1538 16.5322L23.896 16.5L23.9443 16.3872C23.7939 16.4302 23.6328 16.4839 23.4609 16.5483C23.289 16.6128 23.1225 16.645 22.9614 16.645C22.854 16.645 22.6982 16.6074 22.4941 16.5322C22.29 16.457 22.0859 16.3657 21.8818 16.2583C21.6777 16.1509 21.4951 16.0327 21.334 15.9038C21.1728 15.7749 21.0923 15.6514 21.0923 15.5332L21.1245 15.4848C21.0708 15.4204 21.001 15.3613 20.915 15.3076C20.8291 15.2539 20.7485 15.2002 20.6733 15.1465C20.5981 15.0928 20.5283 15.0337 20.4639 14.9692C20.3994 14.9048 20.3725 14.8296 20.3833 14.7436L20.5605 14.5986L20.1899 14.5503L20.061 14.0669C20.0825 14.1206 20.1308 14.1421 20.206 14.1313C20.2812 14.1206 20.3403 14.0991 20.3833 14.0669L19.8032 13.7607L20.206 12.7295C20.0557 12.1709 20.0181 11.7412 20.0932 11.4404C20.1684 11.1396 20.3135 10.8926 20.5283 10.6992C20.7432 10.5058 20.9795 10.3125 21.2373 10.1191C21.4951 9.92577 21.7583 9.66258 22.0268 9.32958L21.9785 9.13622L23.042 7.84715L23.2837 7.81493C23.5845 7.81493 23.9228 7.80418 24.2988 7.7827C24.6748 7.76122 25.0561 7.72362 25.4429 7.66991C25.8296 7.6162 26.2109 7.56249 26.5869 7.50877C26.9629 7.45506 27.3066 7.38524 27.6182 7.2993C27.2744 6.8911 26.9145 6.50438 26.5386 6.13915C26.1626 5.77391 25.7598 5.42479 25.3301 5.09178C25.2119 5.13475 25.0669 5.19383 24.895 5.26903C24.7231 5.34422 24.5513 5.4409 24.3794 5.55907C24.2075 5.67723 24.0732 5.80614 23.9765 5.94579C23.8799 6.08543 23.8208 6.23045 23.7993 6.38085L23.896 6.687C23.7026 6.99852 23.4878 7.19188 23.2515 7.26708C23.0151 7.34227 22.7734 7.38524 22.5264 7.39598C22.2793 7.40672 22.0215 7.40672 21.7529 7.39598C21.4844 7.38524 21.2265 7.43358 20.9795 7.541L20.7217 6.99315L20.9634 6.05858L20.6894 5.65575L23.477 4.78563C23.3589 4.48485 23.1655 4.25926 22.897 4.10887C22.6284 3.95848 22.333 3.88329 22.0107 3.88329V3.72215L22.9131 3.57713C21.914 3.08299 20.8774 2.70702 19.8032 2.4492C18.729 2.19139 17.6279 2.06249 16.5 2.06249C15.5654 2.06249 14.6416 2.15379 13.7285 2.33641C12.8154 2.51903 11.9346 2.78221 11.0859 3.12596C10.2373 3.46971 9.41551 3.8994 8.62059 4.41502C7.82567 4.93065 7.10057 5.51073 6.4453 6.15526C6.7246 6.15526 6.93944 6.22508 7.08983 6.36473C7.24022 6.50438 7.37987 6.66014 7.50877 6.83202C7.63768 7.00389 7.77196 7.15965 7.91161 7.2993C8.05126 7.43895 8.23924 7.51415 8.47557 7.52489L8.73338 7.33153L8.70116 6.97704L9.2329 6.21971L8.81395 5.02733C8.86766 4.9951 8.94823 4.94139 9.05565 4.8662C9.16307 4.791 9.25438 4.7534 9.32958 4.7534C9.65184 4.7534 9.89891 4.76952 10.0708 4.80174C10.2427 4.83397 10.3931 4.89305 10.522 4.97899C10.6509 5.06493 10.7637 5.18846 10.8603 5.3496C10.957 5.51073 11.1074 5.71483 11.3115 5.9619L11.8916 5.51073C11.999 5.5537 12.1709 5.62352 12.4072 5.7202C12.6435 5.81688 12.8852 5.93504 13.1323 6.07469C13.3794 6.21434 13.5889 6.35936 13.7607 6.50975C13.9326 6.66014 14.0239 6.79979 14.0347 6.9287C14.0347 7.08983 13.9756 7.21874 13.8574 7.31542C13.7392 7.4121 13.5835 7.49266 13.3901 7.55711C13.1968 7.62157 12.998 7.66991 12.7939 7.70213C12.5898 7.73436 12.3857 7.77733 12.1816 7.83104C11.9775 7.88475 11.8218 7.93846 11.7143 7.99217C11.6069 8.04588 11.5425 8.13719 11.521 8.2661L12.4556 8.57225C12.2407 8.75487 12.0098 8.92137 11.7627 9.07176C11.5156 9.22215 11.2578 9.3618 10.9892 9.49071L11.0537 9.76463L9.57127 10.3447V10.7959L9.45848 10.8442L9.53905 10.2803L9.4746 10.2641C9.3994 10.2641 9.35643 10.2803 9.34569 10.3125C9.33495 10.3447 9.32958 10.3823 9.32958 10.4253C9.32958 10.4682 9.34032 10.5112 9.3618 10.5542C9.38329 10.5972 9.38866 10.6294 9.37792 10.6509L9.16844 10.5381L9.20067 10.6025C9.20067 10.6348 9.21678 10.6831 9.24901 10.7475C9.28124 10.812 9.3242 10.8711 9.37792 10.9248C9.43163 10.9785 9.4746 11.0322 9.50682 11.0859C9.53905 11.1396 9.56053 11.1665 9.57127 11.1665C9.57127 11.1987 9.54979 11.2309 9.50682 11.2632C9.46385 11.2954 9.41014 11.3169 9.34569 11.3276C9.28124 11.3384 9.23827 11.3545 9.21678 11.376C9.1953 11.3974 9.1953 11.4028 9.21678 11.3921C9.36717 11.3921 9.3994 11.4028 9.31346 11.4243C9.22752 11.4458 9.09325 11.4995 8.91063 11.5854C8.72801 11.6714 8.56151 11.7949 8.41112 11.956C8.26073 12.1172 8.17479 12.3535 8.15331 12.665C8.15331 12.8476 8.15868 13.0249 8.16942 13.1968C8.18016 13.3686 8.17479 13.5459 8.15331 13.7285C8.00292 13.3203 7.77733 13.0088 7.47655 12.7939C7.17577 12.5791 6.81053 12.4717 6.38085 12.4717L5.68797 12.5361L6.02635 12.7617C5.84374 12.7402 5.65575 12.7187 5.46239 12.6973C5.26903 12.6758 5.0703 12.6704 4.8662 12.6811C4.6621 12.6919 4.47948 12.7348 4.31835 12.81C4.15721 12.8852 3.99608 12.998 3.83495 13.1484L3.73827 13.8735C3.73827 14.2173 3.81346 14.4966 3.96385 14.7114C4.11424 14.9263 4.37743 15.039 4.7534 15.0498C5.07567 15.0498 5.39256 15.0015 5.70409 14.9048C6.01561 14.8081 6.32176 14.6953 6.62254 14.5664C6.52586 14.8027 6.41844 15.0283 6.30028 15.2431C6.18211 15.458 6.09618 15.6943 6.04247 15.9521L6.25194 16.0488C6.50975 15.8769 6.74608 15.8501 6.96092 15.9682C7.17577 16.0864 7.38524 16.2583 7.58934 16.4839C7.79344 16.7095 8.00292 16.9404 8.21776 17.1767C8.4326 17.4131 8.66356 17.5849 8.91063 17.6924L8.36278 17.9824L7.07372 17.2573C7.08446 17.2788 7.0952 17.3271 7.10594 17.4023C7.11668 17.4775 7.11131 17.4936 7.08983 17.4507L6.50975 16.4678C6.166 16.457 5.80077 16.4033 5.41405 16.3066C5.02733 16.2099 4.63524 16.081 4.23778 15.9199C3.84032 15.7588 3.46971 15.5815 3.12596 15.3882C2.78221 15.1948 2.46532 14.9907 2.17528 14.7759L2.06249 16.5C2.06249 17.8105 2.23973 19.0889 2.59422 20.3349C2.94872 21.581 3.44823 22.7519 4.09276 23.8476C4.73729 24.9433 5.52684 25.9424 6.46141 26.8447C7.39598 27.7471 8.4326 28.5151 9.57127 29.1489C9.51756 28.9233 9.51219 28.6977 9.55516 28.4722C9.59813 28.2466 9.65184 28.021 9.71629 27.7954C9.78075 27.5698 9.85057 27.3442 9.92577 27.1186C10.001 26.8931 10.0386 26.6621 10.0386 26.4258C10.0386 26.082 9.98485 25.7222 9.87743 25.3462C9.77001 24.9702 9.6411 24.5889 9.49071 24.2021C9.34032 23.8154 9.17381 23.4341 8.9912 23.0581C8.80858 22.6821 8.66356 22.3276 8.55614 21.9946C8.44872 21.6616 8.36278 21.3501 8.29833 21.06C8.23387 20.77 8.2661 20.5176 8.39501 20.3027L8.15331 20.1899C8.21776 20.0395 8.3037 19.8945 8.41112 19.7549C8.51854 19.6152 8.63133 19.4756 8.7495 19.3359C8.86766 19.1963 8.95897 19.0459 9.02342 18.8848C9.08788 18.7236 9.12547 18.5625 9.13622 18.4014C9.13622 18.2939 9.11473 18.1811 9.07176 18.063C9.02879 17.9448 8.9912 17.832 8.95897 17.7246L9.29735 17.8052C9.47997 17.3862 9.72704 17.1015 10.0386 16.9512C10.3501 16.8008 10.7422 16.7202 11.2148 16.7095C11.2685 16.7095 11.3813 16.7309 11.5532 16.7739C11.7251 16.8169 11.9077 16.876 12.1011 16.9512C12.2944 17.0264 12.477 17.0854 12.6489 17.1284C12.8208 17.1714 12.9497 17.2143 13.0356 17.2573C13.0356 17.3325 13.0786 17.3808 13.1645 17.4023C13.2505 17.4238 13.2988 17.4614 13.3096 17.5151L13.2773 17.644C13.3096 17.6548 13.3848 17.6924 13.5029 17.7568C13.6211 17.8213 13.75 17.9018 13.8896 17.9985C14.0293 18.0952 14.1528 18.1811 14.2602 18.2563C14.3677 18.3315 14.4429 18.3906 14.4858 18.4336C14.6792 18.4336 14.9424 18.498 15.2754 18.6269C15.6084 18.7558 15.9736 18.917 16.3711 19.1103C16.7685 19.3037 17.1606 19.5347 17.5473 19.8032C17.9341 20.0718 18.2993 20.3403 18.6431 20.6089C18.9868 20.8774 19.25 21.146 19.4326 21.4145C19.6152 21.6831 19.7226 21.9194 19.7549 22.1235L19.207 22.7036C19.25 23.2515 19.2124 23.6704 19.0942 23.9604C18.9761 24.2505 18.7934 24.4922 18.5464 24.6855C18.2993 24.8789 18.0146 25.04 17.6924 25.1689C17.3701 25.2978 17.021 25.4805 16.645 25.7168C16.645 25.9316 16.5913 26.1626 16.4839 26.4097C16.3765 26.6567 16.2422 26.8931 16.081 27.1186C15.9199 27.3442 15.7265 27.5322 15.501 27.6826C15.2754 27.833 15.0498 27.9082 14.8242 27.9082L14.1474 27.3926C14.1689 27.414 14.1689 27.4516 14.1474 27.5054C14.126 27.5591 14.0991 27.5698 14.0669 27.5376C14.1743 27.7417 14.2012 27.978 14.1474 28.2466C14.0937 28.5151 14.0024 28.789 13.8735 29.0683C13.7446 29.3476 13.5996 29.6108 13.4385 29.8579C13.2773 30.105 13.1323 30.3144 13.0034 30.4863C13.5835 30.6367 14.1636 30.7495 14.7436 30.8247C15.3237 30.8999 15.9092 30.9375 16.5 30.9375Z" fill="#1E1E1E"/>
</g>
<defs>
<clipPath id="clip0_96_24622">
<rect width="33" height="33" fill="white"/>
</clipPath>
</defs>
</svg>
