<svg width="37" height="37" viewBox="0 0 37 37" fill="none" xmlns="http://www.w3.org/2000/svg">
<g opacity="0.6">
<path d="M31.2187 4.625C31.5254 4.625 31.8195 4.74682 32.0363 4.96366C32.2532 5.1805 32.375 5.47459 32.375 5.78125V13.4896C32.375 13.7962 32.2532 14.0903 32.0363 14.3072C31.8195 14.524 31.5254 14.6458 31.2187 14.6458C30.9121 14.6458 30.618 14.524 30.4012 14.3072C30.1843 14.0903 30.0625 13.7962 30.0625 13.4896V8.57167L20.8587 17.7754C20.6419 17.9919 20.3481 18.1136 20.0417 18.1136C19.7353 18.1136 19.4414 17.9919 19.2246 17.7754L15.8021 14.3529L6.59833 23.5567C6.37914 23.7609 6.08924 23.8721 5.78969 23.8668C5.49014 23.8615 5.20434 23.7402 4.9925 23.5283C4.78065 23.3165 4.6593 23.0307 4.65402 22.7311C4.64873 22.4316 4.75992 22.1417 4.96416 21.9225L14.985 11.9017C15.2018 11.6851 15.4957 11.5635 15.8021 11.5635C16.1085 11.5635 16.4024 11.6851 16.6192 11.9017L20.0417 15.3242L28.4283 6.9375H23.5104C23.2038 6.9375 22.9097 6.81568 22.6928 6.59884C22.476 6.382 22.3542 6.08791 22.3542 5.78125C22.3542 5.47459 22.476 5.1805 22.6928 4.96366C22.9097 4.74682 23.2038 4.625 23.5104 4.625H31.2187ZM21.5833 20.0417C20.7656 20.0417 19.9813 20.3665 19.4031 20.9448C18.8248 21.523 18.5 22.3073 18.5 23.125V32.375C18.5 33.1928 18.8248 33.977 19.4031 34.5552C19.9813 35.1335 20.7656 35.4583 21.5833 35.4583H32.375C33.1927 35.4583 33.977 35.1335 34.5552 34.5552C35.1335 33.977 35.4583 33.1928 35.4583 32.375V23.125C35.4583 22.3073 35.1335 21.523 34.5552 20.9448C33.977 20.3665 33.1927 20.0417 32.375 20.0417H21.5833ZM21.5833 25.4375C21.5833 25.2331 21.6645 25.037 21.8091 24.8924C21.9537 24.7479 22.1497 24.6667 22.3542 24.6667H31.6042C31.8086 24.6667 32.0047 24.7479 32.1492 24.8924C32.2938 25.037 32.375 25.2331 32.375 25.4375C32.375 25.6419 32.2938 25.838 32.1492 25.9826C32.0047 26.1271 31.8086 26.2083 31.6042 26.2083H22.3542C22.1497 26.2083 21.9537 26.1271 21.8091 25.9826C21.6645 25.838 21.5833 25.6419 21.5833 25.4375ZM21.5833 30.0625C21.5833 29.8581 21.6645 29.662 21.8091 29.5174C21.9537 29.3729 22.1497 29.2917 22.3542 29.2917H31.6042C31.8086 29.2917 32.0047 29.3729 32.1492 29.5174C32.2938 29.662 32.375 29.8581 32.375 30.0625C32.375 30.2669 32.2938 30.463 32.1492 30.6076C32.0047 30.7521 31.8086 30.8333 31.6042 30.8333H22.3542C22.1497 30.8333 21.9537 30.7521 21.8091 30.6076C21.6645 30.463 21.5833 30.2669 21.5833 30.0625Z" fill="#1E1E1E"/>
</g>
</svg>
