<svg width="28" height="28" viewBox="0 0 28 28" fill="none" xmlns="http://www.w3.org/2000/svg">
<path d="M14 0C6.2678 0 0 6.2678 0 14C0 15.7808 0.366792 17.5854 1.00659 19.2066L2.1 21.4368C2.793 22.8774 2.54941 24.2354 1.61841 25.9C1.10461 26.8212 1.7458 27.9314 2.8 27.9566C4.2238 27.9888 6.5898 27.5352 8.4 26.8632C10.0716 27.6346 12.1352 28 14 28C21.7322 28 28 21.7322 28 14C28 6.2678 21.7322 0 14 0ZM14 2.8C20.1852 2.8 25.2 7.8148 25.2 14C25.2 20.1852 20.1852 25.2 14 25.2C12.39 25.2 10.367 24.7856 9.1 24.1066C8.7248 23.905 8.2656 23.8518 7.875 24.0184C6.9818 24.4006 6.08019 24.6876 5.03159 24.8934C5.45159 23.422 5.32701 21.7378 4.59341 20.2132L3.54341 18.0684C3.07721 16.8756 2.8 15.428 2.8 14C2.8 7.8148 7.8148 2.8 14 2.8ZM8.4 12.6C7.6272 12.6 7 13.2272 7 14C7 14.7728 7.6272 15.4 8.4 15.4C9.1728 15.4 9.8 14.7728 9.8 14C9.8 13.2272 9.1728 12.6 8.4 12.6ZM14 12.6C13.2272 12.6 12.6 13.2272 12.6 14C12.6 14.7728 13.2272 15.4 14 15.4C14.7728 15.4 15.4 14.7728 15.4 14C15.4 13.2272 14.7728 12.6 14 12.6ZM19.6 12.6C18.8272 12.6 18.2 13.2272 18.2 14C18.2 14.7728 18.8272 15.4 19.6 15.4C20.3728 15.4 21 14.7728 21 14C21 13.2272 20.3728 12.6 19.6 12.6Z" fill="white"/>
</svg>
