<svg width="31" height="28" viewBox="0 0 31 28" fill="none" xmlns="http://www.w3.org/2000/svg">
<path d="M8.525 0C3.81672 0 0 3.82956 0 8.55508C0 13.5077 2.81092 18.1803 7.45937 22.4578C9.04595 23.9169 10.7542 25.197 12.4484 26.3465C13.0422 26.7478 13.5975 27.1118 14.0954 27.4151C14.3989 27.6002 14.599 27.734 14.725 27.804C15.1931 28.0653 15.8069 28.0653 16.275 27.804C16.401 27.734 16.6011 27.6002 16.9046 27.4151C17.4025 27.1118 17.9578 26.7478 18.5516 26.3465C20.2458 25.197 21.954 23.9169 23.5406 22.4578C28.1891 18.1803 31 13.5077 31 8.55508C31 3.82956 27.1833 0 22.475 0C19.8009 0 17.1901 1.46216 15.5484 3.59626C13.9475 1.42483 11.3458 0 8.525 0ZM8.525 3.11094C10.4065 3.11094 12.1636 4.06913 13.175 5.5406C13.2733 5.6837 14.0481 6.82696 14.1921 7.04784C14.7918 7.97023 16.1298 7.99824 16.7594 7.09607C16.9125 6.87675 17.719 5.73812 17.825 5.59035C18.8807 4.10954 20.7285 3.11094 22.475 3.11094C25.4711 3.11094 27.9 5.54836 27.9 8.55508C27.9 12.4484 25.4797 16.3791 21.4094 20.1246C19.9443 21.4717 18.3832 22.7005 16.8079 23.7691C16.3316 24.0927 15.9067 24.3447 15.5 24.5951C15.0933 24.3447 14.6684 24.0927 14.1921 23.7691C12.6168 22.7005 11.0557 21.4717 9.59062 20.1246C5.52032 16.3791 3.1 12.4484 3.1 8.55508C3.1 5.54836 5.52885 3.11094 8.525 3.11094Z" fill="#2A343D"/>
</svg>
