<svg width="25" height="31" viewBox="0 0 25 31" fill="none" xmlns="http://www.w3.org/2000/svg">
<path d="M20.0417 0C17.4871 0 15.4167 2.07046 15.4167 4.625C15.4167 5.02121 15.4799 5.51455 15.5739 5.88146L7.32136 11.6411C6.58291 11.1416 5.58238 10.7917 4.625 10.7917C2.07046 10.7917 0 12.8621 0 15.4167C0 17.9712 2.07046 20.0417 4.625 20.0417C5.59933 20.0417 6.56132 19.6794 7.30748 19.166L15.577 24.9719C15.4753 25.3527 15.4167 25.7952 15.4167 26.2083C15.4167 28.7629 17.4871 30.8333 20.0417 30.8333C22.5962 30.8333 24.6667 28.7629 24.6667 26.2083C24.6667 23.6538 22.5962 21.5833 20.0417 21.5833C19.0673 21.5833 18.1177 21.9349 17.3731 22.4498L9.08194 16.6485C9.18215 16.2677 9.25 15.8298 9.25 15.4167C9.25 15.0035 9.19141 14.558 9.08966 14.1772L17.3607 8.39283C18.0991 8.89079 19.0843 9.25 20.0417 9.25C22.5962 9.25 24.6667 7.17954 24.6667 4.625C24.6667 2.07046 22.5962 0 20.0417 0ZM20.0417 3.08333C20.8927 3.08333 21.5833 3.774 21.5833 4.625C21.5833 5.476 20.8927 6.16667 20.0417 6.16667C19.1907 6.16667 18.5 5.476 18.5 4.625C18.5 3.774 19.1907 3.08333 20.0417 3.08333ZM4.625 13.875C5.476 13.875 6.16667 14.5657 6.16667 15.4167C6.16667 16.2677 5.476 16.9583 4.625 16.9583C3.774 16.9583 3.08333 16.2677 3.08333 15.4167C3.08333 14.5657 3.774 13.875 4.625 13.875ZM20.0417 24.6667C20.8927 24.6667 21.5833 25.3573 21.5833 26.2083C21.5833 27.0593 20.8927 27.75 20.0417 27.75C19.1907 27.75 18.5 27.0593 18.5 26.2083C18.5 25.3573 19.1907 24.6667 20.0417 24.6667Z" fill="#2A343D"/>
</svg>
