<svg width="25" height="31" viewBox="0 0 25 31" fill="none" xmlns="http://www.w3.org/2000/svg">
<path d="M6.25 0C2.2625 0 0 2.24192 0 6.19457V29.4241C0 30.5359 1.11719 31.3139 2.14844 30.876L12.5 26.472L22.8031 30.876C23.8344 31.3139 25 30.5359 25 29.4241V6.19457C25 2.13187 22.9609 0 18.75 0H6.25ZM6.25 3.09721H18.75C21.1969 3.09721 21.875 3.80633 21.875 6.19457V27.1011L13.0859 23.3748C12.6922 23.2078 12.2578 23.2078 11.8656 23.3748L3.125 27.1011V6.19457C3.125 3.9525 3.9875 3.09721 6.25 3.09721Z" fill="white"/>
</svg>
