<svg width="33" height="30" viewBox="0 0 33 30" fill="none" xmlns="http://www.w3.org/2000/svg">
<path opacity="0.6" d="M16.5 6.66667V3.33333C16.5 1.5 15.015 0 13.2 0H3.3C1.485 0 0 1.5 0 3.33333V26.6667C0 28.5 1.485 30 3.3 30H29.7C31.515 30 33 28.5 33 26.6667V10C33 8.16667 31.515 6.66667 29.7 6.66667H16.5ZM6.6 26.6667H3.3V23.3333H6.6V26.6667ZM6.6 20H3.3V16.6667H6.6V20ZM6.6 13.3333H3.3V10H6.6V13.3333ZM6.6 6.66667H3.3V3.33333H6.6V6.66667ZM13.2 26.6667H9.9V23.3333H13.2V26.6667ZM13.2 20H9.9V16.6667H13.2V20ZM13.2 13.3333H9.9V10H13.2V13.3333ZM13.2 6.66667H9.9V3.33333H13.2V6.66667ZM28.05 26.6667H16.5V23.3333H19.8V20H16.5V16.6667H19.8V13.3333H16.5V10H28.05C28.9575 10 29.7 10.75 29.7 11.6667V25C29.7 25.9167 28.9575 26.6667 28.05 26.6667ZM26.4 13.3333H23.1V16.6667H26.4V13.3333ZM26.4 20H23.1V23.3333H26.4V20Z" fill="#1E1E1E"/>
</svg>
