<svg width="24" height="24" viewBox="0 0 24 24" fill="none" xmlns="http://www.w3.org/2000/svg">
<path d="M3.99841 2.99077C3.44611 2.99077 2.99841 3.43877 2.99841 3.99077V16.9908C2.99841 19.1998 4.78931 20.9908 6.99841 20.9908H19.9984C20.5504 20.9908 20.9984 20.5428 20.9984 19.9908C20.9984 19.4388 20.5504 18.9908 19.9984 18.9908H6.99841C5.89381 18.9908 4.99841 18.0958 4.99841 16.9908V3.99077C4.99841 3.43877 4.55071 2.99077 3.99841 2.99077ZM13.9984 4.99077V6.99077H17.5604L14.7794 9.77177C14.6894 9.86277 14.4084 9.99077 14.2794 9.99077H12.7174C12.0584 9.99077 11.2454 10.3058 10.7794 10.7718L7.27961 14.2718C6.88911 14.6628 6.88911 15.3188 7.27961 15.7098C7.47491 15.9048 7.74251 15.9908 7.99841 15.9908C8.25431 15.9908 8.52192 15.9048 8.71722 15.7098L12.2174 12.2098C12.3074 12.1188 12.5884 11.9908 12.7174 11.9908H14.2794C14.9384 11.9908 15.7514 11.6758 16.2174 11.2098L18.9984 8.42876V11.9908H20.9984V5.99077C20.9984 5.43877 20.5504 4.99077 19.9984 4.99077H13.9984Z" fill="#2A343D"/>
</svg>
