<svg width="43" height="44" viewBox="0 0 43 44" fill="none" xmlns="http://www.w3.org/2000/svg">
<g opacity="0.15">
<path d="M19.7064 3.58081C16.7378 3.58081 14.3315 6.03748 14.3314 9.08081V11.0287H12.5397C10.9012 10.9613 8.38644 12.0565 7.44456 14.7528L5.37303 14.6954C4.3835 14.6954 3.58119 15.5143 3.58137 16.5287C3.58137 17.5431 4.3835 18.363 5.37303 18.363H7.1647V20.1963H5.37303C4.3835 20.1963 3.58119 21.014 3.58137 22.0296C3.58137 23.0435 4.3835 23.8611 5.37303 23.863H7.1647V25.6963H5.37303C4.3835 25.6963 3.58119 26.514 3.58137 27.5296C3.58137 28.5435 4.3835 29.363 5.37303 29.363H7.1647V31.1963H5.37303C4.3835 31.1963 3.58119 32.014 3.58137 33.0296C3.58137 34.0435 4.3835 34.863 5.37303 34.863H7.1647C7.1647 37.899 9.57109 40.363 12.5397 40.363H25.0814C28.05 40.363 30.4564 37.899 30.4564 34.863V33.0296L32.248 32.971C35.2166 32.971 37.6228 30.5143 37.623 27.471V9.08081C37.623 6.03766 35.2165 3.58044 32.248 3.58081H19.7064ZM32.248 7.24748C33.2376 7.24748 34.0399 8.06643 34.0397 9.08081V27.4141C34.0397 28.428 33.2376 29.2475 32.248 29.2475L30.4564 29.3043V16.5287C30.4564 13.4911 28.05 11.0287 25.0814 11.0287H17.9147V9.1382C17.9147 8.12382 18.7168 7.30468 19.7064 7.30487L32.248 7.24748Z" fill="#2A343D"/>
</g>
</svg>
