<svg width="43" height="44" viewBox="0 0 43 44" fill="none" xmlns="http://www.w3.org/2000/svg">
<g opacity="0.15">
<path d="M36.7272 7.16159C35.2437 7.16159 34.0397 8.39176 34.0397 9.91159V33.7449C34.0397 35.2629 35.2437 36.4949 36.7272 36.4949C38.2107 36.4949 39.4147 35.2648 39.4147 33.7449C39.4147 33.7449 39.3842 11.2389 39.4147 9.91159C39.4452 8.58426 38.2107 7.16159 36.7272 7.16159ZM30.4564 10.8283C23.2897 14.4949 14.3314 14.4949 14.3314 14.4949V27.3283V29.1616V30.9949C14.3314 34.0328 16.7376 36.4949 19.7064 36.4949C22.6752 36.4949 25.0814 34.0328 25.0814 30.9949V30.7658C26.8766 31.2754 28.7184 31.9391 30.4564 32.8283C30.4564 30.9949 30.4564 12.6616 30.4564 10.8283ZM9.23588 14.4949C6.07717 14.4949 3.58137 17.7693 3.58137 21.8283C3.58137 25.8781 6.12551 29.1616 9.29318 29.1616H10.748V14.4949H9.23588ZM17.929 29.3945C19.0667 29.5191 19.7708 29.5979 21.4944 29.9169L21.498 30.9949C21.498 32.0069 20.6954 32.8283 19.7064 32.8283C18.7174 32.8283 17.9147 32.0069 17.9147 30.9949L17.929 29.3945Z" fill="#2A343D"/>
</g>
</svg>
